{"accessors":[{"bufferView":2,"componentType":5126,"count":65532,"max":[2.9680659770965576,21.78376007080078,0.9692280292510986],"min":[-4.657580852508545,14.592341423034668,-1.2120219469070435],"type":"VEC3"},{"bufferView":2,"byteOffset":786384,"componentType":5126,"count":65532,"max":[0.9999954700469971,0.9999995231628418,0.9999960660934448],"min":[-0.9999931454658508,-0.9999988079071045,-0.9999980330467224],"type":"VEC3"},{"bufferView":1,"componentType":5126,"count":65532,"max":[0.9963399767875671,0.9997000098228455],"min":[0.00008499999967170879,0],"type":"VEC2"},{"bufferView":0,"componentType":5125,"count":319677,"type":"SCALAR"},{"bufferView":2,"byteOffset":1572768,"componentType":5126,"count":65534,"max":[2.9660398960113525,21.782974243164062,0.9964830279350281],"min":[-4.657580852508545,14.591856956481934,-1.2099250555038452],"type":"VEC3"},{"bufferView":2,"byteOffset":2359176,"componentType":5126,"count":65534,"max":[0.9999954700469971,0.9999995231628418,0.9999960660934448],"min":[-0.9999967813491821,-0.9999973177909851,-0.9999959468841553],"type":"VEC3"},{"bufferView":1,"byteOffset":524256,"componentType":5126,"count":65534,"max":[0.9982820153236389,1],"min":[0.003367000026628375,0.0004419999895617366],"type":"VEC2"},{"bufferView":0,"byteOffset":1278708,"componentType":5125,"count":279246,"type":"SCALAR"},{"bufferView":2,"byteOffset":3145584,"componentType":5126,"count":1016,"max":[2.9078280925750732,21.78376007080078,0.9646660089492798],"min":[-4.564849853515625,14.933834075927734,-1.1271480321884155],"type":"VEC3"},{"bufferView":2,"byteOffset":3157776,"componentType":5126,"count":1016,"max":[0.9999415278434753,0.9994356632232666,0.9999391436576843],"min":[-0.9996588230133057,-0.9958235025405884,-0.9999926090240479],"type":"VEC3"},{"bufferView":1,"byteOffset":1048528,"componentType":5126,"count":1016,"max":[0.9848570227622986,0.9907320141792297],"min":[0.019525999203324318,0.005530000198632479],"type":"VEC2"},{"bufferView":0,"byteOffset":2395692,"componentType":5125,"count":1077,"type":"SCALAR"}],"asset":{"extras":{"author":"Tyler Jackson (https://sketchfab.com/tyjajack)","license":"SKETCHFAB Editorial (https://sketchfab.com/licenses)","source":"https://sketchfab.com/3d-models/mobile-suit-gundam-figurine-c08999aa75fb4635afdd3376cb94110d","title":"Mobile Suit Gundam Figurine"},"generator":"Sketchfab-11.49.0","version":"2.0"},"bufferViews":[{"buffer":0,"byteLength":2400000,"name":"floatBufferViews","target":34963},{"buffer":0,"byteLength":1056656,"byteOffset":2400000,"byteStride":8,"name":"floatBufferViews","target":34962},{"buffer":0,"byteLength":3169968,"byteOffset":3456656,"byteStride":12,"name":"floatBufferViews","target":34962}],"buffers":[{"byteLength":6626624,"uri":"a295e13b441098b879887aee7485897b.bin"}],"images":[{"uri":"40316701c85db05f4783bdec8895ae70.jpeg"}],"materials":[{"doubleSided":true,"name":"MechFigurine_Decimated","pbrMetallicRoughness":{"baseColorTexture":{"index":0},"metallicFactor":0}}],"meshes":[{"name":"Object_0","primitives":[{"attributes":{"NORMAL":1,"POSITION":0,"TEXCOORD_0":2},"indices":3,"material":0,"mode":4}]},{"name":"Object_1","primitives":[{"attributes":{"NORMAL":5,"POSITION":4,"TEXCOORD_0":6},"indices":7,"material":0,"mode":4}]},{"name":"Object_2","primitives":[{"attributes":{"NORMAL":9,"POSITION":8,"TEXCOORD_0":10},"indices":11,"material":0,"mode":4}]}],"nodes":[{"children":[1],"matrix":[0.030581051483750343,0,0,0,0,-0.030581051483750343,-6.7903574949013875e-18,0,0,6.7903574949013875e-18,-0.030581051483750343,0,0,18.08008193969727,-18.29561614990234,1],"name":"Sketchfab_model"},{"children":[2,3,4],"name":"MechFigurine_Decimated.obj.cleaner.materialmerger.gles"},{"mesh":0,"name":"Object_2"},{"mesh":1,"name":"Object_3"},{"mesh":2,"name":"Object_4"}],"samplers":[{"magFilter":9729,"minFilter":9987,"wrapS":10497,"wrapT":10497}],"scene":0,"scenes":[{"name":"Sketchfab_Scene","nodes":[0]}],"textures":[{"sampler":0,"source":0}]}